<?xml version="1.0" encoding="UTF-8" standalone="no"?><!DOCTYPE svg PUBLIC "-//W3C//DTD SVG 1.1//EN" "http://www.w3.org/Graphics/SVG/1.1/DTD/svg11.dtd"><!-- Generated by graphviz version 2.40.1 (20161225.0304)
 --><!-- Title: database_schema Pages: 1 --><svg xmlns="http://www.w3.org/2000/svg" xmlns:xlink="http://www.w3.org/1999/xlink" width="1282pt" height="842pt" viewBox="0.00 0.00 1281.84 841.80">
<g id="graph0" class="graph" transform="scale(1 1) rotate(0) translate(4 837.8)">
<title>database_schema</title>
<polygon fill="#ffffff" stroke="transparent" points="-4,4 -4,-837.8 1277.8388,-837.8 1277.8388,4 -4,4"/>
<!-- node_table_periodos_escolares -->
<g id="node1" class="node">
<title>node_table_periodos_escolares</title>
<polygon fill="none" stroke="#000000" points="32.8829,-613.1 32.8829,-696.3 197.7967,-696.3 197.7967,-613.1 32.8829,-613.1"/>
<text text-anchor="middle" x="115.3398" y="-679.7" font-family="Times,serif" font-size="14.00" fill="#000000">periodos_escolares</text>
<polyline fill="none" stroke="#000000" points="32.8829,-671.5 197.7967,-671.5 "/>
<text text-anchor="middle" x="115.3398" y="-654.9" font-family="Times,serif" font-size="14.00" fill="#000000">nombre: VARCHAR(255)</text>
<text text-anchor="middle" x="115.3398" y="-638.1" font-family="Times,serif" font-size="14.00" fill="#000000">fecha_inicio: DATE</text>
<text text-anchor="middle" x="115.3398" y="-621.3" font-family="Times,serif" font-size="14.00" fill="#000000">fecha_fin: DATE</text>
</g>
<!-- node_table_grupos -->
<g id="node6" class="node">
<title>node_table_grupos</title>
<polygon fill="none" stroke="#000000" points="220.521,-425.7 220.521,-542.5 456.1586,-542.5 456.1586,-425.7 220.521,-425.7"/>
<text text-anchor="middle" x="338.3398" y="-525.9" font-family="Times,serif" font-size="14.00" fill="#000000">grupos</text>
<polyline fill="none" stroke="#000000" points="220.521,-517.7 456.1586,-517.7 "/>
<text text-anchor="middle" x="338.3398" y="-501.1" font-family="Times,serif" font-size="14.00" fill="#000000">clave_grupo: VARCHAR(255)</text>
<text text-anchor="middle" x="338.3398" y="-484.3" font-family="Times,serif" font-size="14.00" fill="#000000">clave_materia: VARCHAR(255)</text>
<text text-anchor="middle" x="338.3398" y="-467.5" font-family="Times,serif" font-size="14.00" fill="#000000">grupo: VARCHAR(255)</text>
<text text-anchor="middle" x="338.3398" y="-450.7" font-family="Times,serif" font-size="14.00" fill="#000000">periodo_nombre: VARCHAR(255)</text>
<text text-anchor="middle" x="338.3398" y="-433.9" font-family="Times,serif" font-size="14.00" fill="#000000">ficha: INT(4) UNSIGNED ZEROFILL</text>
</g>
<!-- node_table_periodos_escolares&#45;&gt;node_table_grupos -->
<g id="edge4" class="edge">
<title>node_table_periodos_escolares-&gt;node_table_grupos</title>
<path fill="none" stroke="#000000" d="M169.8917,-612.9665C195.0064,-593.7533 225.3903,-570.5089 253.3999,-549.0809"/>
<polygon fill="#000000" stroke="#000000" points="255.8021,-551.65 261.6178,-542.7941 251.5488,-546.0903 255.8021,-551.65"/>
<text text-anchor="middle" x="280.6056" y="-565.2" font-family="Times,serif" font-size="14.00" fill="#000000">periodo_nombre</text>
</g>
<!-- node_table_unidades -->
<g id="node13" class="node">
<title>node_table_unidades</title>
<polygon fill="none" stroke="#000000" points="0,-154.3 0,-371.9 214.6796,-371.9 214.6796,-154.3 0,-154.3"/>
<text text-anchor="middle" x="107.3398" y="-355.3" font-family="Times,serif" font-size="14.00" fill="#000000">unidades</text>
<polyline fill="none" stroke="#000000" points="0,-347.1 214.6796,-347.1 "/>
<text text-anchor="middle" x="107.3398" y="-330.5" font-family="Times,serif" font-size="14.00" fill="#000000">clave_grupo: VARCHAR(255)</text>
<text text-anchor="middle" x="107.3398" y="-313.7" font-family="Times,serif" font-size="14.00" fill="#000000">numero_unidad: INT</text>
<text text-anchor="middle" x="107.3398" y="-296.9" font-family="Times,serif" font-size="14.00" fill="#000000">total_alumnos: INT</text>
<text text-anchor="middle" x="107.3398" y="-280.1" font-family="Times,serif" font-size="14.00" fill="#000000">alumnos_aprobados: INT</text>
<text text-anchor="middle" x="107.3398" y="-263.3" font-family="Times,serif" font-size="14.00" fill="#000000">alumnos_reprobados: INT</text>
<text text-anchor="middle" x="107.3398" y="-246.5" font-family="Times,serif" font-size="14.00" fill="#000000">alumnos_desertores: INT</text>
<text text-anchor="middle" x="107.3398" y="-229.7" font-family="Times,serif" font-size="14.00" fill="#000000">porcentaje_aprobacion: FLOAT</text>
<text text-anchor="middle" x="107.3398" y="-212.9" font-family="Times,serif" font-size="14.00" fill="#000000">porcentaje_reprobacion: FLOAT</text>
<text text-anchor="middle" x="107.3398" y="-196.1" font-family="Times,serif" font-size="14.00" fill="#000000">porcentaje_desercion: FLOAT</text>
<text text-anchor="middle" x="107.3398" y="-179.3" font-family="Times,serif" font-size="14.00" fill="#000000">promedio_grupo: FLOAT</text>
<text text-anchor="middle" x="107.3398" y="-162.5" font-family="Times,serif" font-size="14.00" fill="#000000">periodo_nombre: VARCHAR(255)</text>
</g>
<!-- node_table_periodos_escolares&#45;&gt;node_table_unidades -->
<g id="edge9" class="edge">
<title>node_table_periodos_escolares-&gt;node_table_unidades</title>
<path fill="none" stroke="#000000" d="M114.4837,-612.7919C113.3707,-558.3143 111.3807,-460.8997 109.7831,-382.6994"/>
<polygon fill="#000000" stroke="#000000" points="113.274,-382.2145 109.5704,-372.2881 106.2755,-382.3576 113.274,-382.2145"/>
<text text-anchor="middle" x="159.6056" y="-479.9" font-family="Times,serif" font-size="14.00" fill="#000000">periodo_nombre</text>
</g>
<!-- node_table_departamento -->
<g id="node2" class="node">
<title>node_table_departamento</title>
<polygon fill="none" stroke="#000000" points="480.3408,-766.9 480.3408,-833.3 718.3388,-833.3 718.3388,-766.9 480.3408,-766.9"/>
<text text-anchor="middle" x="599.3398" y="-816.7" font-family="Times,serif" font-size="14.00" fill="#000000">departamento</text>
<polyline fill="none" stroke="#000000" points="480.3408,-808.5 718.3388,-808.5 "/>
<text text-anchor="middle" x="599.3398" y="-791.9" font-family="Times,serif" font-size="14.00" fill="#000000">id: INT</text>
<text text-anchor="middle" x="599.3398" y="-775.1" font-family="Times,serif" font-size="14.00" fill="#000000">nombre: VARCHAR(255) NOT NULL</text>
</g>
<!-- node_table_profesor -->
<g id="node4" class="node">
<title>node_table_profesor</title>
<polygon fill="none" stroke="#000000" points="480.3408,-613.1 480.3408,-696.3 718.3388,-696.3 718.3388,-613.1 480.3408,-613.1"/>
<text text-anchor="middle" x="599.3398" y="-679.7" font-family="Times,serif" font-size="14.00" fill="#000000">profesor</text>
<polyline fill="none" stroke="#000000" points="480.3408,-671.5 718.3388,-671.5 "/>
<text text-anchor="middle" x="599.3398" y="-654.9" font-family="Times,serif" font-size="14.00" fill="#000000">ficha: INT(4) UNSIGNED ZEROFILL</text>
<text text-anchor="middle" x="599.3398" y="-638.1" font-family="Times,serif" font-size="14.00" fill="#000000">nombre: VARCHAR(255) NOT NULL</text>
<text text-anchor="middle" x="599.3398" y="-621.3" font-family="Times,serif" font-size="14.00" fill="#000000">departamento_id: INT</text>
</g>
<!-- node_table_departamento&#45;&gt;node_table_profesor -->
<g id="edge1" class="edge">
<title>node_table_departamento-&gt;node_table_profesor</title>
<path fill="none" stroke="#000000" d="M599.3398,-766.7423C599.3398,-748.9645 599.3398,-726.6952 599.3398,-706.7037"/>
<polygon fill="#000000" stroke="#000000" points="602.8399,-706.4928 599.3398,-696.4929 595.8399,-706.4929 602.8399,-706.4928"/>
<text text-anchor="middle" x="646.3805" y="-735.8" font-family="Times,serif" font-size="14.00" fill="#000000">departamento_id</text>
</g>
<!-- node_table_carrera -->
<g id="node3" class="node">
<title>node_table_carrera</title>
<polygon fill="none" stroke="#000000" points="219.3408,-766.9 219.3408,-833.3 457.3388,-833.3 457.3388,-766.9 219.3408,-766.9"/>
<text text-anchor="middle" x="338.3398" y="-816.7" font-family="Times,serif" font-size="14.00" fill="#000000">carrera</text>
<polyline fill="none" stroke="#000000" points="219.3408,-808.5 457.3388,-808.5 "/>
<text text-anchor="middle" x="338.3398" y="-791.9" font-family="Times,serif" font-size="14.00" fill="#000000">id: INT</text>
<text text-anchor="middle" x="338.3398" y="-775.1" font-family="Times,serif" font-size="14.00" fill="#000000">nombre: VARCHAR(255) NOT NULL</text>
</g>
<!-- node_table_materias -->
<g id="node5" class="node">
<title>node_table_materias</title>
<polygon fill="none" stroke="#000000" points="219.3408,-596.3 219.3408,-713.1 457.3388,-713.1 457.3388,-596.3 219.3408,-596.3"/>
<text text-anchor="middle" x="338.3398" y="-696.5" font-family="Times,serif" font-size="14.00" fill="#000000">materias</text>
<polyline fill="none" stroke="#000000" points="219.3408,-688.3 457.3388,-688.3 "/>
<text text-anchor="middle" x="338.3398" y="-671.7" font-family="Times,serif" font-size="14.00" fill="#000000">clave_materia: VARCHAR(255)</text>
<text text-anchor="middle" x="338.3398" y="-654.9" font-family="Times,serif" font-size="14.00" fill="#000000">clave_asignatura: VARCHAR(255)</text>
<text text-anchor="middle" x="338.3398" y="-638.1" font-family="Times,serif" font-size="14.00" fill="#000000">nombre: VARCHAR(255) NOT NULL</text>
<text text-anchor="middle" x="338.3398" y="-621.3" font-family="Times,serif" font-size="14.00" fill="#000000">unidades: INT(1) NOT NULL</text>
<text text-anchor="middle" x="338.3398" y="-604.5" font-family="Times,serif" font-size="14.00" fill="#000000">carrera_id: INT</text>
</g>
<!-- node_table_carrera&#45;&gt;node_table_materias -->
<g id="edge2" class="edge">
<title>node_table_carrera-&gt;node_table_materias</title>
<path fill="none" stroke="#000000" d="M338.3398,-766.7423C338.3398,-753.8673 338.3398,-738.6366 338.3398,-723.6213"/>
<polygon fill="#000000" stroke="#000000" points="341.8399,-723.2922 338.3398,-713.2922 334.8399,-723.2922 341.8399,-723.2922"/>
<text text-anchor="middle" x="366.7052" y="-735.8" font-family="Times,serif" font-size="14.00" fill="#000000">carrera_id</text>
</g>
<!-- node_table_profesor&#45;&gt;node_table_grupos -->
<g id="edge7" class="edge">
<title>node_table_profesor-&gt;node_table_grupos</title>
<path fill="none" stroke="#000000" d="M535.492,-612.9665C505.8454,-593.5883 469.9254,-570.1096 436.9102,-548.5296"/>
<polygon fill="#000000" stroke="#000000" points="438.421,-545.3357 428.1355,-542.7941 434.591,-551.1951 438.421,-545.3357"/>
<text text-anchor="middle" x="490.33" y="-565.2" font-family="Times,serif" font-size="14.00" fill="#000000">ficha</text>
</g>
<!-- node_table_usuario -->
<g id="node7" class="node">
<title>node_table_usuario</title>
<polygon fill="none" stroke="#000000" points="477.4663,-442.5 477.4663,-525.7 737.2133,-525.7 737.2133,-442.5 477.4663,-442.5"/>
<text text-anchor="middle" x="607.3398" y="-509.1" font-family="Times,serif" font-size="14.00" fill="#000000">usuario</text>
<polyline fill="none" stroke="#000000" points="477.4663,-500.9 737.2133,-500.9 "/>
<text text-anchor="middle" x="607.3398" y="-484.3" font-family="Times,serif" font-size="14.00" fill="#000000">ficha: INT(4) UNSIGNED ZEROFILL</text>
<text text-anchor="middle" x="607.3398" y="-467.5" font-family="Times,serif" font-size="14.00" fill="#000000">contraseña: VARCHAR(255) NOT NULL</text>
<text text-anchor="middle" x="607.3398" y="-450.7" font-family="Times,serif" font-size="14.00" fill="#000000">refresh_token: VARCHAR(255)</text>
</g>
<!-- node_table_profesor&#45;&gt;node_table_usuario -->
<g id="edge5" class="edge">
<title>node_table_profesor-&gt;node_table_usuario</title>
<path fill="none" stroke="#000000" d="M601.2968,-612.9665C602.3816,-589.8345 603.7403,-560.8592 604.8945,-536.2457"/>
<polygon fill="#000000" stroke="#000000" points="608.4029,-536.1469 605.3753,-525.9939 601.4106,-535.8189 608.4029,-536.1469"/>
<text text-anchor="middle" x="617.33" y="-565.2" font-family="Times,serif" font-size="14.00" fill="#000000">ficha</text>
</g>
<!-- node_table_materias&#45;&gt;node_table_grupos -->
<g id="edge3" class="edge">
<title>node_table_materias-&gt;node_table_grupos</title>
<path fill="none" stroke="#000000" d="M338.3398,-595.9892C338.3398,-582.1061 338.3398,-567.179 338.3398,-552.894"/>
<polygon fill="#000000" stroke="#000000" points="341.8399,-552.6299 338.3398,-542.6299 334.8399,-552.63 341.8399,-552.6299"/>
<text text-anchor="middle" x="377.5951" y="-565.2" font-family="Times,serif" font-size="14.00" fill="#000000">clave_materia</text>
</g>
<!-- node_table_grupos&#45;&gt;node_table_unidades -->
<g id="edge8" class="edge">
<title>node_table_grupos-&gt;node_table_unidades</title>
<path fill="none" stroke="#000000" d="M277.0425,-425.4563C260.0941,-409.2415 241.1319,-391.1002 222.1928,-372.981"/>
<polygon fill="#000000" stroke="#000000" points="224.585,-370.4258 214.9396,-366.0418 219.7459,-375.4838 224.585,-370.4258"/>
<text text-anchor="middle" x="291.9373" y="-394.6" font-family="Times,serif" font-size="14.00" fill="#000000">clave_grupo</text>
</g>
<!-- node_table_reporte_final -->
<g id="node15" class="node">
<title>node_table_reporte_final</title>
<polygon fill="none" stroke="#000000" points="233,-162.7 233,-363.5 447.6796,-363.5 447.6796,-162.7 233,-162.7"/>
<text text-anchor="middle" x="340.3398" y="-346.9" font-family="Times,serif" font-size="14.00" fill="#000000">reporte_final</text>
<polyline fill="none" stroke="#000000" points="233,-338.7 447.6796,-338.7 "/>
<text text-anchor="middle" x="340.3398" y="-322.1" font-family="Times,serif" font-size="14.00" fill="#000000">clave_grupo: VARCHAR(255)</text>
<text text-anchor="middle" x="340.3398" y="-305.3" font-family="Times,serif" font-size="14.00" fill="#000000">total_alumnos: INT</text>
<text text-anchor="middle" x="340.3398" y="-288.5" font-family="Times,serif" font-size="14.00" fill="#000000">alumnos_aprobados: INT</text>
<text text-anchor="middle" x="340.3398" y="-271.7" font-family="Times,serif" font-size="14.00" fill="#000000">alumnos_reprobados: INT</text>
<text text-anchor="middle" x="340.3398" y="-254.9" font-family="Times,serif" font-size="14.00" fill="#000000">alumnos_desertores: INT</text>
<text text-anchor="middle" x="340.3398" y="-238.1" font-family="Times,serif" font-size="14.00" fill="#000000">porcentaje_aprobacion: FLOAT</text>
<text text-anchor="middle" x="340.3398" y="-221.3" font-family="Times,serif" font-size="14.00" fill="#000000">porcentaje_reprobacion: FLOAT</text>
<text text-anchor="middle" x="340.3398" y="-204.5" font-family="Times,serif" font-size="14.00" fill="#000000">porcentaje_desercion: FLOAT</text>
<text text-anchor="middle" x="340.3398" y="-187.7" font-family="Times,serif" font-size="14.00" fill="#000000">promedio_unidad: FLOAT</text>
<text text-anchor="middle" x="340.3398" y="-170.9" font-family="Times,serif" font-size="14.00" fill="#000000">periodo_nombre: VARCHAR(255)</text>
</g>
<!-- node_table_grupos&#45;&gt;node_table_reporte_final -->
<g id="edge11" class="edge">
<title>node_table_grupos-&gt;node_table_reporte_final</title>
<path fill="none" stroke="#000000" d="M338.8705,-425.4563C339.0137,-409.6357 339.1735,-391.9809 339.3334,-374.3023"/>
<polygon fill="#000000" stroke="#000000" points="342.8368,-373.9355 339.4275,-363.9042 335.8371,-373.8721 342.8368,-373.9355"/>
<text text-anchor="middle" x="372.9373" y="-394.6" font-family="Times,serif" font-size="14.00" fill="#000000">clave_grupo</text>
</g>
<!-- node_table_usuario_rol -->
<g id="node10" class="node">
<title>node_table_usuario_rol</title>
<polygon fill="none" stroke="#000000" points="767.4158,-229.9 767.4158,-296.3 1051.2638,-296.3 1051.2638,-229.9 767.4158,-229.9"/>
<text text-anchor="middle" x="909.3398" y="-279.7" font-family="Times,serif" font-size="14.00" fill="#000000">usuario_rol</text>
<polyline fill="none" stroke="#000000" points="767.4158,-271.5 1051.2638,-271.5 "/>
<text text-anchor="middle" x="909.3398" y="-254.9" font-family="Times,serif" font-size="14.00" fill="#000000">usuario_ficha: INT(4) UNSIGNED ZEROFILL</text>
<text text-anchor="middle" x="909.3398" y="-238.1" font-family="Times,serif" font-size="14.00" fill="#000000">rol_id: INT</text>
</g>
<!-- node_table_usuario&#45;&gt;node_table_usuario_rol -->
<g id="edge12" class="edge">
<title>node_table_usuario-&gt;node_table_usuario_rol</title>
<path fill="none" stroke="#000000" d="M664.4987,-442.2718C719.3623,-402.1233 801.6086,-341.9364 855.3767,-302.5896"/>
<polygon fill="#000000" stroke="#000000" points="857.75,-305.1899 863.753,-296.4599 853.6161,-299.5409 857.75,-305.1899"/>
<text text-anchor="middle" x="744.33" y="-394.6" font-family="Times,serif" font-size="14.00" fill="#000000">ficha</text>
</g>
<!-- node_table_tokens -->
<g id="node12" class="node">
<title>node_table_tokens</title>
<polygon fill="none" stroke="#000000" points="465.4158,-187.9 465.4158,-338.3 749.2638,-338.3 749.2638,-187.9 465.4158,-187.9"/>
<text text-anchor="middle" x="607.3398" y="-321.7" font-family="Times,serif" font-size="14.00" fill="#000000">tokens</text>
<polyline fill="none" stroke="#000000" points="465.4158,-313.5 749.2638,-313.5 "/>
<text text-anchor="middle" x="607.3398" y="-296.9" font-family="Times,serif" font-size="14.00" fill="#000000">token: VARCHAR(256)</text>
<text text-anchor="middle" x="607.3398" y="-280.1" font-family="Times,serif" font-size="14.00" fill="#000000">expiracion: INT NOT NULL</text>
<text text-anchor="middle" x="607.3398" y="-263.3" font-family="Times,serif" font-size="14.00" fill="#000000">usuario_ficha: INT(4) UNSIGNED ZEROFILL</text>
<text text-anchor="middle" x="607.3398" y="-246.5" font-family="Times,serif" font-size="14.00" fill="#000000">ip_cliente: VARCHAR(45)</text>
<text text-anchor="middle" x="607.3398" y="-229.7" font-family="Times,serif" font-size="14.00" fill="#000000">user_agent: VARCHAR(255)</text>
<text text-anchor="middle" x="607.3398" y="-212.9" font-family="Times,serif" font-size="14.00" fill="#000000">fecha_creacion: DATETIME</text>
<text text-anchor="middle" x="607.3398" y="-196.1" font-family="Times,serif" font-size="14.00" fill="#000000">fecha_expiracion: DATETIME</text>
</g>
<!-- node_table_usuario&#45;&gt;node_table_tokens -->
<g id="edge6" class="edge">
<title>node_table_usuario-&gt;node_table_tokens</title>
<path fill="none" stroke="#000000" d="M607.3398,-442.2718C607.3398,-415.8493 607.3398,-380.7477 607.3398,-348.6193"/>
<polygon fill="#000000" stroke="#000000" points="610.8399,-348.3072 607.3398,-338.3072 603.8399,-348.3073 610.8399,-348.3072"/>
<text text-anchor="middle" x="645.4352" y="-394.6" font-family="Times,serif" font-size="14.00" fill="#000000">usuario_ficha</text>
</g>
<!-- node_table_rol -->
<g id="node8" class="node">
<title>node_table_rol</title>
<polygon fill="none" stroke="#000000" points="793.8408,-450.9 793.8408,-517.3 1024.8388,-517.3 1024.8388,-450.9 793.8408,-450.9"/>
<text text-anchor="middle" x="909.3398" y="-500.7" font-family="Times,serif" font-size="14.00" fill="#000000">rol</text>
<polyline fill="none" stroke="#000000" points="793.8408,-492.5 1024.8388,-492.5 "/>
<text text-anchor="middle" x="909.3398" y="-475.9" font-family="Times,serif" font-size="14.00" fill="#000000">id: INT</text>
<text text-anchor="middle" x="909.3398" y="-459.1" font-family="Times,serif" font-size="14.00" fill="#000000">nombre: VARCHAR(50) NOT NULL</text>
</g>
<!-- node_table_rol&#45;&gt;node_table_usuario_rol -->
<g id="edge13" class="edge">
<title>node_table_rol-&gt;node_table_usuario_rol</title>
<path fill="none" stroke="#000000" d="M909.3398,-450.5349C909.3398,-412.1307 909.3398,-349.113 909.3398,-306.88"/>
<polygon fill="#000000" stroke="#000000" points="912.8399,-306.6182 909.3398,-296.6182 905.8399,-306.6183 912.8399,-306.6182"/>
<text text-anchor="middle" x="926.0607" y="-394.6" font-family="Times,serif" font-size="14.00" fill="#000000">rol_id</text>
</g>
<!-- node_table_rol_permiso -->
<g id="node11" class="node">
<title>node_table_rol_permiso</title>
<polygon fill="none" stroke="#000000" points="1086.4888,-229.9 1086.4888,-296.3 1196.1908,-296.3 1196.1908,-229.9 1086.4888,-229.9"/>
<text text-anchor="middle" x="1141.3398" y="-279.7" font-family="Times,serif" font-size="14.00" fill="#000000">rol_permiso</text>
<polyline fill="none" stroke="#000000" points="1086.4888,-271.5 1196.1908,-271.5 "/>
<text text-anchor="middle" x="1141.3398" y="-254.9" font-family="Times,serif" font-size="14.00" fill="#000000">rol_id: INT</text>
<text text-anchor="middle" x="1141.3398" y="-238.1" font-family="Times,serif" font-size="14.00" fill="#000000">permiso_id: INT</text>
</g>
<!-- node_table_rol&#45;&gt;node_table_rol_permiso -->
<g id="edge14" class="edge">
<title>node_table_rol-&gt;node_table_rol_permiso</title>
<path fill="none" stroke="#000000" d="M961.9845,-450.856C992.4729,-430.2621 1030.5826,-402.1314 1060.3398,-372.4 1080.6048,-352.1526 1099.8495,-326.5562 1114.4919,-305.2243"/>
<polygon fill="#000000" stroke="#000000" points="1117.5706,-306.9197 1120.2726,-296.6751 1111.7717,-302.9987 1117.5706,-306.9197"/>
<text text-anchor="middle" x="1042.7851" y="-394.6" font-family="Times,serif" font-size="14.00" fill="#000000">id</text>
</g>
<!-- node_table_permiso -->
<g id="node9" class="node">
<title>node_table_permiso</title>
<polygon fill="none" stroke="#000000" points="1042.8408,-450.9 1042.8408,-517.3 1273.8388,-517.3 1273.8388,-450.9 1042.8408,-450.9"/>
<text text-anchor="middle" x="1158.3398" y="-500.7" font-family="Times,serif" font-size="14.00" fill="#000000">permiso</text>
<polyline fill="none" stroke="#000000" points="1042.8408,-492.5 1273.8388,-492.5 "/>
<text text-anchor="middle" x="1158.3398" y="-475.9" font-family="Times,serif" font-size="14.00" fill="#000000">id: INT</text>
<text text-anchor="middle" x="1158.3398" y="-459.1" font-family="Times,serif" font-size="14.00" fill="#000000">nombre: VARCHAR(50) NOT NULL</text>
</g>
<!-- node_table_permiso&#45;&gt;node_table_rol_permiso -->
<g id="edge15" class="edge">
<title>node_table_permiso-&gt;node_table_rol_permiso</title>
<path fill="none" stroke="#000000" d="M1155.7579,-450.5349C1152.7974,-412.0493 1147.9356,-348.8459 1144.6869,-306.6118"/>
<polygon fill="#000000" stroke="#000000" points="1148.1749,-306.3203 1143.9181,-296.6182 1141.1955,-306.8572 1148.1749,-306.3203"/>
<text text-anchor="middle" x="1183.8356" y="-394.6" font-family="Times,serif" font-size="14.00" fill="#000000">permiso_id</text>
</g>
<!-- node_table_reportes -->
<g id="node14" class="node">
<title>node_table_reportes</title>
<polygon fill="none" stroke="#000000" points="11.6683,-.5 11.6683,-83.7 203.0113,-83.7 203.0113,-.5 11.6683,-.5"/>
<text text-anchor="middle" x="107.3398" y="-67.1" font-family="Times,serif" font-size="14.00" fill="#000000">reportes</text>
<polyline fill="none" stroke="#000000" points="11.6683,-58.9 203.0113,-58.9 "/>
<text text-anchor="middle" x="107.3398" y="-42.3" font-family="Times,serif" font-size="14.00" fill="#000000">reporte: VARCHAR(255)</text>
<text text-anchor="middle" x="107.3398" y="-25.5" font-family="Times,serif" font-size="14.00" fill="#000000">clave_grupo: VARCHAR(255)</text>
<text text-anchor="middle" x="107.3398" y="-8.7" font-family="Times,serif" font-size="14.00" fill="#000000">numero_unidad: INT</text>
</g>
<!-- node_table_unidades&#45;&gt;node_table_reportes -->
<g id="edge10" class="edge">
<title>node_table_unidades-&gt;node_table_reportes</title>
<path fill="none" stroke="#000000" d="M107.3398,-154.2186C107.3398,-133.1727 107.3398,-112.0485 107.3398,-93.9006"/>
<polygon fill="#000000" stroke="#000000" points="110.8399,-93.8642 107.3398,-83.8642 103.8399,-93.8643 110.8399,-93.8642"/>
<text text-anchor="middle" x="151.2753" y="-123.2" font-family="Times,serif" font-size="14.00" fill="#000000">clave_grupo</text>
<text text-anchor="middle" x="151.2753" y="-106.4" font-family="Times,serif" font-size="14.00" fill="#000000">numero_unidad</text>
</g>
</g>
</svg>