<?xml version="1.0" encoding="UTF-8" standalone="no"?><!DOCTYPE svg PUBLIC "-//W3C//DTD SVG 1.1//EN" "http://www.w3.org/Graphics/SVG/1.1/DTD/svg11.dtd"><!-- Generated by graphviz version 2.40.1 (20161225.0304)
 --><!-- Title: DatabaseSchema Pages: 1 --><svg xmlns="http://www.w3.org/2000/svg" xmlns:xlink="http://www.w3.org/1999/xlink" width="2552pt" height="1241pt" viewBox="0.00 0.00 2552.33 1241.00">
<g id="graph0" class="graph" transform="scale(1 1) rotate(0) translate(4 1237)">
<title>DatabaseSchema</title>
<polygon fill="#ffffff" stroke="transparent" points="-4,4 -4,-1237 2548.33,-1237 2548.33,4 -4,4"/>
<!-- periodos_escolares -->
<g id="node1" class="node">
<title>periodos_escolares</title>
<polygon fill="none" stroke="#000000" points="352.1282,-955.5 352.1282,-1054.7 543.8618,-1054.7 543.8618,-955.5 352.1282,-955.5"/>
<text text-anchor="middle" x="447.995" y="-1038.1" font-family="Times,serif" font-size="14.00" fill="#000000">Periodos Escolares</text>
<polyline fill="none" stroke="#000000" points="352.1282,-1029.9 543.8618,-1029.9 "/>
<text text-anchor="middle" x="447.995" y="-1013.3" font-family="Times,serif" font-size="14.00" fill="#000000">nombre VARCHAR(255) (PK)</text>
<polyline fill="none" stroke="#000000" points="352.1282,-1005.1 543.8618,-1005.1 "/>
<text text-anchor="middle" x="447.995" y="-988.5" font-family="Times,serif" font-size="14.00" fill="#000000">fecha_inicio DATE</text>
<polyline fill="none" stroke="#000000" points="352.1282,-980.3 543.8618,-980.3 "/>
<text text-anchor="middle" x="447.995" y="-963.7" font-family="Times,serif" font-size="14.00" fill="#000000">fecha_fin DATE</text>
</g>
<!-- grupos -->
<g id="node6" class="node">
<title>grupos</title>
<polygon fill="none" stroke="#000000" points="804.66,-678.5 804.66,-852.1 1421.33,-852.1 1421.33,-678.5 804.66,-678.5"/>
<text text-anchor="middle" x="1112.995" y="-835.5" font-family="Times,serif" font-size="14.00" fill="#000000">Grupos</text>
<polyline fill="none" stroke="#000000" points="804.66,-827.3 1421.33,-827.3 "/>
<text text-anchor="middle" x="1112.995" y="-810.7" font-family="Times,serif" font-size="14.00" fill="#000000">clave_grupo VARCHAR(255) (PK)</text>
<polyline fill="none" stroke="#000000" points="804.66,-802.5 1421.33,-802.5 "/>
<text text-anchor="middle" x="1112.995" y="-785.9" font-family="Times,serif" font-size="14.00" fill="#000000">clave_materia VARCHAR(255)</text>
<polyline fill="none" stroke="#000000" points="804.66,-777.7 1421.33,-777.7 "/>
<text text-anchor="middle" x="1112.995" y="-761.1" font-family="Times,serif" font-size="14.00" fill="#000000">grupo VARCHAR(255)</text>
<polyline fill="none" stroke="#000000" points="804.66,-752.9 1421.33,-752.9 "/>
<text text-anchor="middle" x="1112.995" y="-736.3" font-family="Times,serif" font-size="14.00" fill="#000000">periodo_nombre VARCHAR(255)</text>
<polyline fill="none" stroke="#000000" points="804.66,-728.1 1421.33,-728.1 "/>
<text text-anchor="middle" x="1112.995" y="-711.5" font-family="Times,serif" font-size="14.00" fill="#000000">FOREIGN KEY (clave_materia) REFERENCES materias(clave_materia)</text>
<polyline fill="none" stroke="#000000" points="804.66,-703.3 1421.33,-703.3 "/>
<text text-anchor="middle" x="1112.995" y="-686.7" font-family="Times,serif" font-size="14.00" fill="#000000">FOREIGN KEY (periodo_nombre) REFERENCES periodos_escolares(nombre) ON DELETE CASCADE</text>
</g>
<!-- periodos_escolares&#45;&gt;grupos -->
<g id="edge1" class="edge">
<title>periodos_escolares-&gt;grupos</title>
<path fill="none" stroke="#000000" d="M543.9815,-970.4871C627.1623,-940.492 751.2878,-895.7322 862.4002,-855.6649"/>
<polygon fill="#000000" stroke="#000000" points="863.8613,-858.8587 872.081,-852.1739 861.4867,-852.2737 863.8613,-858.8587"/>
<text text-anchor="middle" x="867.2608" y="-874.8" font-family="Times,serif" font-size="14.00" fill="#000000">periodo_nombre</text>
</g>
<!-- unidades -->
<g id="node9" class="node">
<title>unidades</title>
<polygon fill="none" stroke="#000000" points="66.66,-252.7 66.66,-624.7 683.33,-624.7 683.33,-252.7 66.66,-252.7"/>
<text text-anchor="middle" x="374.995" y="-608.1" font-family="Times,serif" font-size="14.00" fill="#000000">Unidades</text>
<polyline fill="none" stroke="#000000" points="66.66,-599.9 683.33,-599.9 "/>
<text text-anchor="middle" x="374.995" y="-583.3" font-family="Times,serif" font-size="14.00" fill="#000000">clave_grupo VARCHAR(255)</text>
<polyline fill="none" stroke="#000000" points="66.66,-575.1 683.33,-575.1 "/>
<text text-anchor="middle" x="374.995" y="-558.5" font-family="Times,serif" font-size="14.00" fill="#000000">numero_unidad INT</text>
<polyline fill="none" stroke="#000000" points="66.66,-550.3 683.33,-550.3 "/>
<text text-anchor="middle" x="374.995" y="-533.7" font-family="Times,serif" font-size="14.00" fill="#000000">total_alumnos INT</text>
<polyline fill="none" stroke="#000000" points="66.66,-525.5 683.33,-525.5 "/>
<text text-anchor="middle" x="374.995" y="-508.9" font-family="Times,serif" font-size="14.00" fill="#000000">alumnos_aprobados INT</text>
<polyline fill="none" stroke="#000000" points="66.66,-500.7 683.33,-500.7 "/>
<text text-anchor="middle" x="374.995" y="-484.1" font-family="Times,serif" font-size="14.00" fill="#000000">alumnos_reprobados INT</text>
<polyline fill="none" stroke="#000000" points="66.66,-475.9 683.33,-475.9 "/>
<text text-anchor="middle" x="374.995" y="-459.3" font-family="Times,serif" font-size="14.00" fill="#000000">alumnos_desertores INT</text>
<polyline fill="none" stroke="#000000" points="66.66,-451.1 683.33,-451.1 "/>
<text text-anchor="middle" x="374.995" y="-434.5" font-family="Times,serif" font-size="14.00" fill="#000000">porcentaje_aprobacion FLOAT</text>
<polyline fill="none" stroke="#000000" points="66.66,-426.3 683.33,-426.3 "/>
<text text-anchor="middle" x="374.995" y="-409.7" font-family="Times,serif" font-size="14.00" fill="#000000">porcentaje_reprobacion FLOAT</text>
<polyline fill="none" stroke="#000000" points="66.66,-401.5 683.33,-401.5 "/>
<text text-anchor="middle" x="374.995" y="-384.9" font-family="Times,serif" font-size="14.00" fill="#000000">porcentaje_desercion FLOAT</text>
<polyline fill="none" stroke="#000000" points="66.66,-376.7 683.33,-376.7 "/>
<text text-anchor="middle" x="374.995" y="-360.1" font-family="Times,serif" font-size="14.00" fill="#000000">promedio_grupo FLOAT</text>
<polyline fill="none" stroke="#000000" points="66.66,-351.9 683.33,-351.9 "/>
<text text-anchor="middle" x="374.995" y="-335.3" font-family="Times,serif" font-size="14.00" fill="#000000">periodo_nombre VARCHAR(255)</text>
<polyline fill="none" stroke="#000000" points="66.66,-327.1 683.33,-327.1 "/>
<text text-anchor="middle" x="374.995" y="-310.5" font-family="Times,serif" font-size="14.00" fill="#000000">PRIMARY KEY (clave_grupo, numero_unidad)</text>
<polyline fill="none" stroke="#000000" points="66.66,-302.3 683.33,-302.3 "/>
<text text-anchor="middle" x="374.995" y="-285.7" font-family="Times,serif" font-size="14.00" fill="#000000">FOREIGN KEY (clave_grupo) REFERENCES grupos(clave_grupo)</text>
<polyline fill="none" stroke="#000000" points="66.66,-277.5 683.33,-277.5 "/>
<text text-anchor="middle" x="374.995" y="-260.9" font-family="Times,serif" font-size="14.00" fill="#000000">FOREIGN KEY (periodo_nombre) REFERENCES periodos_escolares(nombre) ON DELETE CASCADE</text>
</g>
<!-- periodos_escolares&#45;&gt;unidades -->
<g id="edge10" class="edge">
<title>periodos_escolares-&gt;unidades</title>
<path fill="none" stroke="#000000" d="M441.5807,-955.3322C432.3938,-884.052 414.9725,-748.8819 400.2538,-634.6807"/>
<polygon fill="#000000" stroke="#000000" points="403.7236,-634.2213 398.974,-624.7508 396.7811,-635.1161 403.7236,-634.2213"/>
<text text-anchor="middle" x="474.2608" y="-761.1" font-family="Times,serif" font-size="14.00" fill="#000000">periodo_nombre</text>
</g>
<!-- reportes -->
<g id="node10" class="node">
<title>reportes</title>
<polygon fill="none" stroke="#000000" points="66.66,-.5 66.66,-198.9 683.33,-198.9 683.33,-.5 66.66,-.5"/>
<text text-anchor="middle" x="374.995" y="-182.3" font-family="Times,serif" font-size="14.00" fill="#000000">Reportes</text>
<polyline fill="none" stroke="#000000" points="66.66,-174.1 683.33,-174.1 "/>
<text text-anchor="middle" x="374.995" y="-157.5" font-family="Times,serif" font-size="14.00" fill="#000000">reporte VARCHAR(255)</text>
<polyline fill="none" stroke="#000000" points="66.66,-149.3 683.33,-149.3 "/>
<text text-anchor="middle" x="374.995" y="-132.7" font-family="Times,serif" font-size="14.00" fill="#000000">clave_grupo VARCHAR(255)</text>
<polyline fill="none" stroke="#000000" points="66.66,-124.5 683.33,-124.5 "/>
<text text-anchor="middle" x="374.995" y="-107.9" font-family="Times,serif" font-size="14.00" fill="#000000">numero_unidad INT</text>
<polyline fill="none" stroke="#000000" points="66.66,-99.7 683.33,-99.7 "/>
<text text-anchor="middle" x="374.995" y="-83.1" font-family="Times,serif" font-size="14.00" fill="#000000">periodo_nombre VARCHAR(255)</text>
<polyline fill="none" stroke="#000000" points="66.66,-74.9 683.33,-74.9 "/>
<text text-anchor="middle" x="374.995" y="-58.3" font-family="Times,serif" font-size="14.00" fill="#000000">FOREIGN KEY (clave_grupo, numero_unidad) REFERENCES unidades(clave_grupo, numero_unidad)</text>
<polyline fill="none" stroke="#000000" points="66.66,-50.1 683.33,-50.1 "/>
<text text-anchor="middle" x="374.995" y="-33.5" font-family="Times,serif" font-size="14.00" fill="#000000">FOREIGN KEY (periodo_nombre) REFERENCES periodos_escolares(nombre) ON DELETE CASCADE</text>
<polyline fill="none" stroke="#000000" points="66.66,-25.3 683.33,-25.3 "/>
<text text-anchor="middle" x="374.995" y="-8.7" font-family="Times,serif" font-size="14.00" fill="#000000">PRIMARY KEY (reporte, clave_grupo, numero_unidad)</text>
</g>
<!-- periodos_escolares&#45;&gt;reportes -->
<g id="edge12" class="edge">
<title>periodos_escolares-&gt;reportes</title>
<path fill="none" stroke="#000000" d="M366.6753,-955.4098C271.9455,-892.1988 120.46,-773.2497 57.995,-625.2 -6.4486,-472.4607 -30.2327,-392.5501 57.995,-252.2 68.9583,-234.7598 82.5359,-219.268 97.8485,-205.5138"/>
<polygon fill="#000000" stroke="#000000" points="100.2235,-208.0873 105.5012,-198.9005 95.6465,-202.791 100.2235,-208.0873"/>
<text text-anchor="middle" x="119.2608" y="-647.4" font-family="Times,serif" font-size="14.00" fill="#000000">periodo_nombre</text>
</g>
<!-- reporte_final -->
<g id="node11" class="node">
<title>reporte_final</title>
<polygon fill="none" stroke="#000000" points="701.1155,-265.1 701.1155,-612.3 1168.8745,-612.3 1168.8745,-265.1 701.1155,-265.1"/>
<text text-anchor="middle" x="934.995" y="-595.7" font-family="Times,serif" font-size="14.00" fill="#000000">Reporte_Final</text>
<polyline fill="none" stroke="#000000" points="701.1155,-587.5 1168.8745,-587.5 "/>
<text text-anchor="middle" x="934.995" y="-570.9" font-family="Times,serif" font-size="14.00" fill="#000000">clave_grupo VARCHAR(255)</text>
<polyline fill="none" stroke="#000000" points="701.1155,-562.7 1168.8745,-562.7 "/>
<text text-anchor="middle" x="934.995" y="-546.1" font-family="Times,serif" font-size="14.00" fill="#000000">total_alumnos INT</text>
<polyline fill="none" stroke="#000000" points="701.1155,-537.9 1168.8745,-537.9 "/>
<text text-anchor="middle" x="934.995" y="-521.3" font-family="Times,serif" font-size="14.00" fill="#000000">alumnos_aprobados INT</text>
<polyline fill="none" stroke="#000000" points="701.1155,-513.1 1168.8745,-513.1 "/>
<text text-anchor="middle" x="934.995" y="-496.5" font-family="Times,serif" font-size="14.00" fill="#000000">alumnos_reprobados INT</text>
<polyline fill="none" stroke="#000000" points="701.1155,-488.3 1168.8745,-488.3 "/>
<text text-anchor="middle" x="934.995" y="-471.7" font-family="Times,serif" font-size="14.00" fill="#000000">alumnos_desertores INT</text>
<polyline fill="none" stroke="#000000" points="701.1155,-463.5 1168.8745,-463.5 "/>
<text text-anchor="middle" x="934.995" y="-446.9" font-family="Times,serif" font-size="14.00" fill="#000000">porcentaje_aprobacion FLOAT</text>
<polyline fill="none" stroke="#000000" points="701.1155,-438.7 1168.8745,-438.7 "/>
<text text-anchor="middle" x="934.995" y="-422.1" font-family="Times,serif" font-size="14.00" fill="#000000">porcentaje_reprobacion FLOAT</text>
<polyline fill="none" stroke="#000000" points="701.1155,-413.9 1168.8745,-413.9 "/>
<text text-anchor="middle" x="934.995" y="-397.3" font-family="Times,serif" font-size="14.00" fill="#000000">porcentaje_desercion FLOAT</text>
<polyline fill="none" stroke="#000000" points="701.1155,-389.1 1168.8745,-389.1 "/>
<text text-anchor="middle" x="934.995" y="-372.5" font-family="Times,serif" font-size="14.00" fill="#000000">promedio_unidad FLOAT</text>
<polyline fill="none" stroke="#000000" points="701.1155,-364.3 1168.8745,-364.3 "/>
<text text-anchor="middle" x="934.995" y="-347.7" font-family="Times,serif" font-size="14.00" fill="#000000">periodo_nombre VARCHAR(255)</text>
<polyline fill="none" stroke="#000000" points="701.1155,-339.5 1168.8745,-339.5 "/>
<text text-anchor="middle" x="934.995" y="-322.9" font-family="Times,serif" font-size="14.00" fill="#000000">PRIMARY KEY (clave_grupo, periodo_nombre)</text>
<polyline fill="none" stroke="#000000" points="701.1155,-314.7 1168.8745,-314.7 "/>
<text text-anchor="middle" x="934.995" y="-298.1" font-family="Times,serif" font-size="14.00" fill="#000000">FOREIGN KEY (clave_grupo) REFERENCES grupos(clave_grupo)</text>
<polyline fill="none" stroke="#000000" points="701.1155,-289.9 1168.8745,-289.9 "/>
<text text-anchor="middle" x="934.995" y="-273.3" font-family="Times,serif" font-size="14.00" fill="#000000">FOREIGN KEY (periodo_nombre) REFERENCES periodos_escolares(nombre)</text>
</g>
<!-- periodos_escolares&#45;&gt;reporte_final -->
<g id="edge15" class="edge">
<title>periodos_escolares-&gt;reporte_final</title>
<path fill="none" stroke="#000000" d="M483.5957,-955.2262C535.4968,-883.6436 636.3138,-748.7721 732.995,-643.2 739.9463,-635.6094 747.0887,-627.9145 754.3463,-620.1814"/>
<polygon fill="#000000" stroke="#000000" points="757.331,-622.1173 761.6395,-612.438 752.2353,-617.3179 757.331,-622.1173"/>
<text text-anchor="middle" x="747.2608" y="-761.1" font-family="Times,serif" font-size="14.00" fill="#000000">periodo_nombre</text>
</g>
<!-- departamento -->
<g id="node2" class="node">
<title>departamento</title>
<polygon fill="none" stroke="#000000" points="1566.9413,-967.9 1566.9413,-1042.3 1801.0487,-1042.3 1801.0487,-967.9 1566.9413,-967.9"/>
<text text-anchor="middle" x="1683.995" y="-1025.7" font-family="Times,serif" font-size="14.00" fill="#000000">Departamento</text>
<polyline fill="none" stroke="#000000" points="1566.9413,-1017.5 1801.0487,-1017.5 "/>
<text text-anchor="middle" x="1683.995" y="-1000.9" font-family="Times,serif" font-size="14.00" fill="#000000">id INT (PK)</text>
<polyline fill="none" stroke="#000000" points="1566.9413,-992.7 1801.0487,-992.7 "/>
<text text-anchor="middle" x="1683.995" y="-976.1" font-family="Times,serif" font-size="14.00" fill="#000000">nombre VARCHAR(255) NOT NULL</text>
</g>
<!-- profesor -->
<g id="node4" class="node">
<title>profesor</title>
<polygon fill="none" stroke="#000000" points="1480.4374,-703.3 1480.4374,-827.3 1887.5526,-827.3 1887.5526,-703.3 1480.4374,-703.3"/>
<text text-anchor="middle" x="1683.995" y="-810.7" font-family="Times,serif" font-size="14.00" fill="#000000">Profesor</text>
<polyline fill="none" stroke="#000000" points="1480.4374,-802.5 1887.5526,-802.5 "/>
<text text-anchor="middle" x="1683.995" y="-785.9" font-family="Times,serif" font-size="14.00" fill="#000000">ficha INT(4) UNSIGNED ZEROFILL (PK)</text>
<polyline fill="none" stroke="#000000" points="1480.4374,-777.7 1887.5526,-777.7 "/>
<text text-anchor="middle" x="1683.995" y="-761.1" font-family="Times,serif" font-size="14.00" fill="#000000">nombre VARCHAR(255) NOT NULL</text>
<polyline fill="none" stroke="#000000" points="1480.4374,-752.9 1887.5526,-752.9 "/>
<text text-anchor="middle" x="1683.995" y="-736.3" font-family="Times,serif" font-size="14.00" fill="#000000">departamento_id INT</text>
<polyline fill="none" stroke="#000000" points="1480.4374,-728.1 1887.5526,-728.1 "/>
<text text-anchor="middle" x="1683.995" y="-711.5" font-family="Times,serif" font-size="14.00" fill="#000000">FOREIGN KEY (departamento_id) REFERENCES departamento(id)</text>
</g>
<!-- departamento&#45;&gt;profesor -->
<g id="edge2" class="edge">
<title>departamento-&gt;profesor</title>
<path fill="none" stroke="#000000" d="M1683.995,-967.8944C1683.995,-933.1843 1683.995,-880.4469 1683.995,-837.4798"/>
<polygon fill="#000000" stroke="#000000" points="1687.4951,-837.3486 1683.995,-827.3486 1680.4951,-837.3487 1687.4951,-837.3486"/>
<text text-anchor="middle" x="1731.0357" y="-874.8" font-family="Times,serif" font-size="14.00" fill="#000000">departamento_id</text>
</g>
<!-- carrera -->
<g id="node3" class="node">
<title>carrera</title>
<polygon fill="none" stroke="#000000" points="995.9413,-1158.1 995.9413,-1232.5 1230.0487,-1232.5 1230.0487,-1158.1 995.9413,-1158.1"/>
<text text-anchor="middle" x="1112.995" y="-1215.9" font-family="Times,serif" font-size="14.00" fill="#000000">Carrera</text>
<polyline fill="none" stroke="#000000" points="995.9413,-1207.7 1230.0487,-1207.7 "/>
<text text-anchor="middle" x="1112.995" y="-1191.1" font-family="Times,serif" font-size="14.00" fill="#000000">id INT (PK)</text>
<polyline fill="none" stroke="#000000" points="995.9413,-1182.9 1230.0487,-1182.9 "/>
<text text-anchor="middle" x="1112.995" y="-1166.3" font-family="Times,serif" font-size="14.00" fill="#000000">nombre VARCHAR(255) NOT NULL</text>
</g>
<!-- materias -->
<g id="node5" class="node">
<title>materias</title>
<polygon fill="none" stroke="#000000" points="946.788,-905.9 946.788,-1104.3 1279.202,-1104.3 1279.202,-905.9 946.788,-905.9"/>
<text text-anchor="middle" x="1112.995" y="-1087.7" font-family="Times,serif" font-size="14.00" fill="#000000">Materias</text>
<polyline fill="none" stroke="#000000" points="946.788,-1079.5 1279.202,-1079.5 "/>
<text text-anchor="middle" x="1112.995" y="-1062.9" font-family="Times,serif" font-size="14.00" fill="#000000">clave_materia VARCHAR(255) (PK)</text>
<polyline fill="none" stroke="#000000" points="946.788,-1054.7 1279.202,-1054.7 "/>
<text text-anchor="middle" x="1112.995" y="-1038.1" font-family="Times,serif" font-size="14.00" fill="#000000">clave_asignatura VARCHAR(255)</text>
<polyline fill="none" stroke="#000000" points="946.788,-1029.9 1279.202,-1029.9 "/>
<text text-anchor="middle" x="1112.995" y="-1013.3" font-family="Times,serif" font-size="14.00" fill="#000000">nombre VARCHAR(255) NOT NULL</text>
<polyline fill="none" stroke="#000000" points="946.788,-1005.1 1279.202,-1005.1 "/>
<text text-anchor="middle" x="1112.995" y="-988.5" font-family="Times,serif" font-size="14.00" fill="#000000">unidades INT(1) NOT NULL</text>
<polyline fill="none" stroke="#000000" points="946.788,-980.3 1279.202,-980.3 "/>
<text text-anchor="middle" x="1112.995" y="-963.7" font-family="Times,serif" font-size="14.00" fill="#000000">carrera_id INT</text>
<polyline fill="none" stroke="#000000" points="946.788,-955.5 1279.202,-955.5 "/>
<text text-anchor="middle" x="1112.995" y="-938.9" font-family="Times,serif" font-size="14.00" fill="#000000">FOREIGN KEY (carrera_id) REFERENCES carrera(id)</text>
<polyline fill="none" stroke="#000000" points="946.788,-930.7 1279.202,-930.7 "/>
<text text-anchor="middle" x="1112.995" y="-914.1" font-family="Times,serif" font-size="14.00" fill="#000000">UNIQUE (nombre)</text>
</g>
<!-- carrera&#45;&gt;materias -->
<g id="edge3" class="edge">
<title>carrera-&gt;materias</title>
<path fill="none" stroke="#000000" d="M1112.995,-1157.7226C1112.995,-1145.023 1112.995,-1130.1312 1112.995,-1114.7183"/>
<polygon fill="#000000" stroke="#000000" points="1116.4951,-1114.5324 1112.995,-1104.5324 1109.4951,-1114.5324 1116.4951,-1114.5324"/>
<text text-anchor="middle" x="1141.3604" y="-1127" font-family="Times,serif" font-size="14.00" fill="#000000">carrera_id</text>
</g>
<!-- profesor_materia -->
<g id="node7" class="node">
<title>profesor_materia</title>
<polygon fill="none" stroke="#000000" points="1292.66,-339.5 1292.66,-537.9 1909.33,-537.9 1909.33,-339.5 1292.66,-339.5"/>
<text text-anchor="middle" x="1600.995" y="-521.3" font-family="Times,serif" font-size="14.00" fill="#000000">Profesor_Materia</text>
<polyline fill="none" stroke="#000000" points="1292.66,-513.1 1909.33,-513.1 "/>
<text text-anchor="middle" x="1600.995" y="-496.5" font-family="Times,serif" font-size="14.00" fill="#000000">ficha INT(4) UNSIGNED ZEROFILL</text>
<polyline fill="none" stroke="#000000" points="1292.66,-488.3 1909.33,-488.3 "/>
<text text-anchor="middle" x="1600.995" y="-471.7" font-family="Times,serif" font-size="14.00" fill="#000000">clave_materia VARCHAR(255)</text>
<polyline fill="none" stroke="#000000" points="1292.66,-463.5 1909.33,-463.5 "/>
<text text-anchor="middle" x="1600.995" y="-446.9" font-family="Times,serif" font-size="14.00" fill="#000000">periodo_nombre VARCHAR(255)</text>
<polyline fill="none" stroke="#000000" points="1292.66,-438.7 1909.33,-438.7 "/>
<text text-anchor="middle" x="1600.995" y="-422.1" font-family="Times,serif" font-size="14.00" fill="#000000">FOREIGN KEY (ficha) REFERENCES profesor(ficha)</text>
<polyline fill="none" stroke="#000000" points="1292.66,-413.9 1909.33,-413.9 "/>
<text text-anchor="middle" x="1600.995" y="-397.3" font-family="Times,serif" font-size="14.00" fill="#000000">FOREIGN KEY (clave_materia) REFERENCES materias(clave_materia)</text>
<polyline fill="none" stroke="#000000" points="1292.66,-389.1 1909.33,-389.1 "/>
<text text-anchor="middle" x="1600.995" y="-372.5" font-family="Times,serif" font-size="14.00" fill="#000000">FOREIGN KEY (periodo_nombre) REFERENCES periodos_escolares(nombre) ON DELETE CASCADE</text>
<polyline fill="none" stroke="#000000" points="1292.66,-364.3 1909.33,-364.3 "/>
<text text-anchor="middle" x="1600.995" y="-347.7" font-family="Times,serif" font-size="14.00" fill="#000000">PRIMARY KEY (ficha, clave_materia)</text>
</g>
<!-- profesor&#45;&gt;profesor_materia -->
<g id="edge4" class="edge">
<title>profesor-&gt;profesor_materia</title>
<path fill="none" stroke="#000000" d="M1668.188,-703.1003C1657.0529,-659.2845 1641.8493,-599.4591 1628.7203,-547.7974"/>
<polygon fill="#000000" stroke="#000000" points="1632.0646,-546.7467 1626.2093,-537.9169 1625.2803,-548.4709 1632.0646,-546.7467"/>
<text text-anchor="middle" x="1670.9852" y="-647.4" font-family="Times,serif" font-size="14.00" fill="#000000">ficha</text>
</g>
<!-- profesor_grupo -->
<g id="node8" class="node">
<title>profesor_grupo</title>
<polygon fill="none" stroke="#000000" points="1927.66,-339.5 1927.66,-537.9 2544.33,-537.9 2544.33,-339.5 1927.66,-339.5"/>
<text text-anchor="middle" x="2235.995" y="-521.3" font-family="Times,serif" font-size="14.00" fill="#000000">Profesor_Grupo</text>
<polyline fill="none" stroke="#000000" points="1927.66,-513.1 2544.33,-513.1 "/>
<text text-anchor="middle" x="2235.995" y="-496.5" font-family="Times,serif" font-size="14.00" fill="#000000">ficha INT(4) UNSIGNED ZEROFILL</text>
<polyline fill="none" stroke="#000000" points="1927.66,-488.3 2544.33,-488.3 "/>
<text text-anchor="middle" x="2235.995" y="-471.7" font-family="Times,serif" font-size="14.00" fill="#000000">clave_grupo VARCHAR(255)</text>
<polyline fill="none" stroke="#000000" points="1927.66,-463.5 2544.33,-463.5 "/>
<text text-anchor="middle" x="2235.995" y="-446.9" font-family="Times,serif" font-size="14.00" fill="#000000">periodo_nombre VARCHAR(255)</text>
<polyline fill="none" stroke="#000000" points="1927.66,-438.7 2544.33,-438.7 "/>
<text text-anchor="middle" x="2235.995" y="-422.1" font-family="Times,serif" font-size="14.00" fill="#000000">FOREIGN KEY (ficha) REFERENCES profesor(ficha)</text>
<polyline fill="none" stroke="#000000" points="1927.66,-413.9 2544.33,-413.9 "/>
<text text-anchor="middle" x="2235.995" y="-397.3" font-family="Times,serif" font-size="14.00" fill="#000000">FOREIGN KEY (clave_grupo) REFERENCES grupos(clave_grupo)</text>
<polyline fill="none" stroke="#000000" points="1927.66,-389.1 2544.33,-389.1 "/>
<text text-anchor="middle" x="2235.995" y="-372.5" font-family="Times,serif" font-size="14.00" fill="#000000">FOREIGN KEY (periodo_nombre) REFERENCES periodos_escolares(nombre) ON DELETE CASCADE</text>
<polyline fill="none" stroke="#000000" points="1927.66,-364.3 2544.33,-364.3 "/>
<text text-anchor="middle" x="2235.995" y="-347.7" font-family="Times,serif" font-size="14.00" fill="#000000">PRIMARY KEY (ficha, clave_grupo)</text>
</g>
<!-- profesor&#45;&gt;profesor_grupo -->
<g id="edge6" class="edge">
<title>profesor-&gt;profesor_grupo</title>
<path fill="none" stroke="#000000" d="M1788.7959,-703.2928C1865.0531,-658.174 1970.1271,-596.0052 2059.2638,-543.2659"/>
<polygon fill="#000000" stroke="#000000" points="2061.2897,-546.1341 2068.1139,-538.0297 2057.7252,-540.1096 2061.2897,-546.1341"/>
<text text-anchor="middle" x="1891.9852" y="-647.4" font-family="Times,serif" font-size="14.00" fill="#000000">ficha</text>
</g>
<!-- materias&#45;&gt;grupos -->
<g id="edge5" class="edge">
<title>materias-&gt;grupos</title>
<path fill="none" stroke="#000000" d="M1112.995,-905.8332C1112.995,-891.5249 1112.995,-876.8125 1112.995,-862.5443"/>
<polygon fill="#000000" stroke="#000000" points="1116.4951,-862.2454 1112.995,-852.2455 1109.4951,-862.2455 1116.4951,-862.2454"/>
<text text-anchor="middle" x="1152.2503" y="-874.8" font-family="Times,serif" font-size="14.00" fill="#000000">clave_materia</text>
</g>
<!-- grupos&#45;&gt;profesor_materia -->
<g id="edge7" class="edge">
<title>grupos-&gt;profesor_materia</title>
<path fill="none" stroke="#000000" d="M1242.8088,-678.4205C1304.5555,-637.0957 1378.8988,-587.3406 1443.8142,-543.8952"/>
<polygon fill="#000000" stroke="#000000" points="1446.1351,-546.5535 1452.4989,-538.0828 1442.2417,-540.7361 1446.1351,-546.5535"/>
<text text-anchor="middle" x="1323.2503" y="-647.4" font-family="Times,serif" font-size="14.00" fill="#000000">clave_materia</text>
</g>
<!-- grupos&#45;&gt;profesor_grupo -->
<g id="edge8" class="edge">
<title>grupos-&gt;profesor_grupo</title>
<path fill="none" stroke="#000000" d="M1409.0072,-678.4318C1465.613,-664.5604 1524.7122,-651.9249 1580.8,-643.2 1654.9471,-631.6659 1846.1298,-646.7923 1917.995,-625.2 1978.0905,-607.144 2038.797,-575.5639 2090.8323,-543.4668"/>
<polygon fill="#000000" stroke="#000000" points="2092.8038,-546.3623 2099.4405,-538.1037 2089.1022,-540.4211 2092.8038,-546.3623"/>
<text text-anchor="middle" x="1614.5925" y="-647.4" font-family="Times,serif" font-size="14.00" fill="#000000">clave_grupo</text>
</g>
<!-- grupos&#45;&gt;unidades -->
<g id="edge9" class="edge">
<title>grupos-&gt;unidades</title>
<path fill="none" stroke="#000000" d="M824.8103,-678.4062C782.4713,-663.2276 739.6784,-646.5207 692.8067,-625.5022"/>
<polygon fill="#000000" stroke="#000000" points="694.2464,-622.3121 683.6923,-621.3838 691.364,-628.6911 694.2464,-622.3121"/>
<text text-anchor="middle" x="805.5925" y="-647.4" font-family="Times,serif" font-size="14.00" fill="#000000">clave_grupo</text>
</g>
<!-- grupos&#45;&gt;reportes -->
<g id="edge13" class="edge">
<title>grupos-&gt;reportes</title>
<path fill="none" stroke="#000000" d="M1160.3159,-678.41C1167.6379,-661.2355 1174.0659,-643.0046 1177.995,-625.2 1195.8571,-544.2586 1230.8565,-316.0454 1177.995,-252.2 1115.9805,-177.2997 890.2112,-138.8885 693.8004,-119.364"/>
<polygon fill="#000000" stroke="#000000" points="693.8768,-115.8548 683.583,-118.3626 693.1939,-122.8214 693.8768,-115.8548"/>
<text text-anchor="middle" x="1239.5925" y="-434.5" font-family="Times,serif" font-size="14.00" fill="#000000">clave_grupo</text>
</g>
<!-- grupos&#45;&gt;reporte_final -->
<g id="edge14" class="edge">
<title>grupos-&gt;reporte_final</title>
<path fill="none" stroke="#000000" d="M1065.5281,-678.2062C1055.8826,-660.5084 1045.3982,-641.2712 1034.7044,-621.65"/>
<polygon fill="#000000" stroke="#000000" points="1037.6374,-619.7177 1029.7786,-612.612 1031.491,-623.0675 1037.6374,-619.7177"/>
<text text-anchor="middle" x="1089.5925" y="-647.4" font-family="Times,serif" font-size="14.00" fill="#000000">clave_grupo</text>
</g>
<!-- unidades&#45;&gt;reportes -->
<g id="edge11" class="edge">
<title>unidades-&gt;reportes</title>
<path fill="none" stroke="#000000" d="M374.995,-252.341C374.995,-237.6083 374.995,-223.0472 374.995,-209.1088"/>
<polygon fill="#000000" stroke="#000000" points="378.4951,-209.076 374.995,-199.076 371.4951,-209.0761 378.4951,-209.076"/>
<text text-anchor="middle" x="457.028" y="-221.6" font-family="Times,serif" font-size="14.00" fill="#000000">clave_grupo, numero_unidad</text>
</g>
</g>
</svg>